<svg width="50" height="50" viewBox="0 0 50 50" fill="none" xmlns="http://www.w3.org/2000/svg">
<rect width="50" height="50" transform="matrix(-1 0 0 -1 50 50.0001)" fill="white"/>
<circle cx="25" cy="25" r="22" transform="rotate(180 25 25)" fill="#E3B873"/>
<path d="M33.5858 23.5858C34.3668 24.3668 34.3668 25.6332 33.5858 26.4142L22.0542 37.9458C21.4444 38.5556 20.4632 38.5789 19.8251 37.9988V37.9988C19.1564 37.3908 19.1164 36.3527 19.7363 35.6951L20.9474 34.4105L29.3389 25.6879C29.7166 25.2953 29.7106 24.6727 29.3254 24.2875L19.6904 14.6526C19.0329 13.995 19.0026 12.9386 19.6215 12.2445V12.2445C20.2926 11.4919 21.4585 11.4585 22.1715 12.1715L33.5858 23.5858Z" fill="white"/>
</svg>
